<svg xmlns="http://www.w3.org/2000/svg" xmlns:xlink="http://www.w3.org/1999/xlink" width="185" height="22" viewBox="0 0 185 22"><defs><path id="386ba" d="M129.93 82.7V65.87h5.57V82.7zm24.46 0l-6.63-8.6v8.6h-5.06V65.87h4.65l6.65 8.64v-8.64h5.04V82.7zm21.12-12.43V82.7h-5.57V70.27h-4.78v-4.4h15.15v4.4zm16.48-.17v2.06h7.88v4.23h-7.88v2.08h8.88v4.23h-14.45V65.87h14.24v4.23zm23.45 8.23h-2.09v4.37h-5.57V65.87h8.14c4.56 0 7.18 2.19 7.18 6.03 0 2.45-.94 4.27-2.67 5.33l3.32 5.47h-6.3zm.48-4.22c1.2 0 1.9-.75 1.9-2.04 0-1.25-.7-1.97-1.9-1.97h-2.57v4zm14.06 8.59V65.87h5.57V82.7zm30.41-8.43c0 5-3.89 8.67-9.24 8.67s-9.24-3.65-9.24-8.67c0-4.99 3.89-8.56 9.24-8.56s9.24 3.6 9.24 8.56zm-12.77.03c0 2.3 1.68 4 3.6 4 1.92 0 3.46-1.7 3.46-4s-1.54-3.96-3.46-3.96c-1.94 0-3.6 1.65-3.6 3.96zm26.79 4.03h-2.09v4.37h-5.57V65.87h8.14c4.56 0 7.17 2.19 7.17 6.03 0 2.45-.93 4.27-2.66 5.33l3.31 5.47h-6.29zm.48-4.22c1.2 0 1.9-.75 1.9-2.04 0-1.25-.7-1.97-1.9-1.97h-2.57v4zM98.25 63.84h9.19v9.2h-9.19zm21 0v9.2h-9.19v-9.2zm-9.19 11.82h9.19v9.18h-9.19zm-11.81 0h9.19v9.18h-9.19z"/></defs><g><g transform="translate(-98 -63)"><use fill="#212121" xlink:href="#386ba"/></g></g></svg>