<svg xmlns="http://www.w3.org/2000/svg" xmlns:xlink="http://www.w3.org/1999/xlink" width="23" height="23" viewBox="0 0 23 23"><defs><path id="ralsa" d="M1185.55 63.5c1.22 0 2.38.24 3.5.73a8.89 8.89 0 0 1 5.5 8.27 8.97 8.97 0 0 1-1.97 5.63l5.67 5.67c.2.18.29.42.29.7 0 .28-.1.52-.29.7-.18.2-.42.3-.7.3a1 1 0 0 1-.73-.3l-5.67-5.67a9.04 9.04 0 0 1-9.11 1.27 9.2 9.2 0 0 1-2.86-1.92 9.5 9.5 0 0 1-1.93-2.89 8.88 8.88 0 0 1 0-6.98 9.5 9.5 0 0 1 1.93-2.88c.8-.8 1.75-1.43 2.86-1.9a8.8 8.8 0 0 1 3.51-.73zm0 2a7.1 7.1 0 0 0-4.97 2.06 6.85 6.85 0 0 0-1.47 2.22 6.72 6.72 0 0 0 0 5.44 6.84 6.84 0 0 0 3.72 3.73 6.73 6.73 0 0 0 5.44 0 7.16 7.16 0 0 0 3.73-3.73 6.98 6.98 0 0 0 0-5.44 7.17 7.17 0 0 0-3.73-3.73 6.84 6.84 0 0 0-2.72-.56z"/></defs><g><g transform="translate(-1176 -63)"><use xlink:href="#ralsa"/></g></g></svg>